<svg version="1.0" xmlns="http://www.w3.org/2000/svg"
     width="32.000000pt" height="32.000000pt" viewBox="0 0 32.000000 32.000000"
     preserveAspectRatio="xMidYMid meet">

  <g transform="translate(0.000000,32.000000) scale(0.100000,-0.100000)"
     fill="#000000" stroke="none">
    <path d="M30 160 l0 -160 130 0 130 0 0 160 0 160 -130 0 -130 0 0 -160z m189
104 c31 -25 31 -27 31 -120 l0 -94 -90 0 c-95 0 -106 6 -73 42 15 17 15 19 0
36 -11 12 -17 36 -17 64 0 39 5 50 31 72 17 15 43 26 59 26 16 0 42 -11 59
-26z"/>
    <path d="M115 245 c-14 -13 -25 -33 -25 -45 0 -27 43 -70 70 -70 27 0 70 43
70 70 0 27 -43 70 -70 70 -11 0 -32 -11 -45 -25z m99 -21 c10 -25 -1 -29 -14
-5 -6 12 -7 21 -1 21 5 0 12 -7 15 -16z"/>
  </g>
</svg>
